<?xml version="1.0" standalone="no"?>
<!DOCTYPE svg PUBLIC "-//W3C//DTD SVG 20010904//EN"
 "">
<svg version="1.0" xmlns="http://www.w3.org/2000/svg"
 width="512.000000pt" height="512.000000pt" viewBox="0 0 512.000000 512.000000"
 preserveAspectRatio="xMidYMid meet">

<g transform="translate(0.000000,512.000000) scale(0.100000,-0.100000)"
 stroke="none">
<path d="M2396 5105 c-329 -63 -596 -314 -688 -650 -20 -74 -22 -107 -26 -467
l-4 -388 -419 0 -419 0 0 -1175 0 -1175 1720 0 1720 0 0 1175 0 1175 -419 0
-419 0 -4 388 c-5 445 -8 468 -97 647 -112 225 -316 392 -556 455 -106 28
-283 35 -389 15z m285 -299 c163 -35 324 -160 394 -307 59 -125 65 -172 65
-556 l0 -343 150 0 150 0 0 -199 0 -200 55 -25 c64 -29 151 -108 196 -177 94
-148 94 -360 0 -508 -112 -174 -326 -258 -526 -206 -203 53 -355 250 -355 460
0 173 107 346 262 425 l68 35 0 198 0 197 -580 0 -580 0 0 -198 0 -198 62 -30
c154 -72 268 -255 268 -429 0 -210 -152 -407 -355 -460 -301 -78 -595 146
-597 456 -1 183 101 353 260 431 l62 31 0 198 0 199 150 0 150 0 0 343 c0 384
6 431 65 555 26 55 55 94 109 148 143 144 333 201 527 160z"/>
<path d="M1755 2906 c-69 -30 -113 -120 -96 -195 20 -91 95 -146 188 -139 106
9 179 107 159 213 -8 40 -55 99 -97 121 -35 17 -114 18 -154 0z"/>
<path d="M3205 2902 c-63 -41 -95 -93 -95 -157 0 -130 142 -215 260 -155 55
28 83 72 88 141 5 69 -16 119 -66 157 -46 35 -142 43 -187 14z"/>
<path d="M840 475 l0 -475 1720 0 1720 0 0 475 0 475 -1720 0 -1720 0 0 -475z"/>
</g>
</svg>
