<?xml version="1.0" standalone="no"?>
<!DOCTYPE svg PUBLIC "-//W3C//DTD SVG 20010904//EN"
 "">
<svg version="1.0" xmlns="http://www.w3.org/2000/svg"
 width="512.000000pt" height="512.000000pt" viewBox="0 0 512.000000 512.000000"
 preserveAspectRatio="xMidYMid meet">

<g transform="translate(0.000000,512.000000) scale(0.100000,-0.100000)"
 stroke="none">
<path d="M2370 5113 c-664 -63 -1204 -318 -1650 -779 -196 -202 -341 -411
-466 -669 -156 -322 -236 -647 -251 -1010 -22 -577 157 -1156 500 -1614 68
-91 72 -94 75 -66 1 17 14 85 27 152 115 559 482 1056 988 1337 37 21 67 39
67 40 0 2 -20 33 -44 70 -264 402 -222 957 102 1333 163 189 412 327 665 368
308 50 631 -35 875 -231 235 -188 379 -454 414 -763 26 -237 -39 -510 -168
-707 -24 -37 -44 -68 -44 -70 0 -2 21 -15 48 -28 71 -36 228 -141 312 -210
354 -286 611 -712 699 -1157 11 -57 22 -117 23 -134 3 -28 7 -25 74 65 103
140 157 228 238 391 353 710 353 1548 0 2258 -124 250 -263 447 -458 648 -216
224 -428 378 -711 518 -296 146 -572 225 -900 255 -102 9 -333 11 -415 3z"/>
<path d="M2370 4146 c-201 -42 -368 -132 -511 -275 -125 -125 -202 -258 -255
-436 -37 -128 -44 -321 -16 -455 80 -382 351 -668 733 -772 117 -32 365 -32
480 0 380 104 652 391 731 772 28 134 21 327 -17 455 -51 176 -132 315 -254
436 -126 125 -277 213 -446 259 -102 28 -345 37 -445 16z"/>
<path d="M1640 2346 c-533 -304 -879 -841 -946 -1464 l-7 -64 74 -75 c182
-185 413 -349 663 -473 198 -97 316 -141 511 -190 239 -60 356 -74 620 -74
233 -1 319 7 510 45 480 96 952 347 1284 683 l84 85 -12 103 c-51 424 -236
808 -534 1110 -137 139 -335 286 -479 354 l-37 17 -64 -60 c-286 -267 -724
-360 -1097 -233 -158 54 -328 157 -419 254 -19 20 -40 36 -46 36 -6 0 -53 -24
-105 -54z"/>
</g>
</svg>
