<?xml version="1.0" standalone="no"?>
<!DOCTYPE svg PUBLIC "-//W3C//DTD SVG 20010904//EN"
 "">
<svg version="1.0" xmlns="http://www.w3.org/2000/svg"
 width="512.000000pt" height="512.000000pt" viewBox="0 0 512.000000 512.000000"
 preserveAspectRatio="xMidYMid meet">

<g transform="translate(0.000000,512.000000) scale(0.100000,-0.100000)"
 stroke="none">
<path d="M1933 5095 c-56 -28 -95 -77 -112 -140 -7 -25 -11 -172 -11 -392 l0
-353 -67 -34 c-38 -19 -107 -59 -155 -89 l-87 -55 -316 183 c-319 185 -361
204 -427 190 -45 -9 -112 -49 -130 -77 -36 -54 -543 -937 -559 -973 -35 -77
-16 -179 45 -234 14 -13 163 -104 331 -201 l306 -177 1 -183 0 -183 -306 -176
c-168 -97 -317 -188 -332 -201 -61 -56 -80 -158 -45 -235 16 -36 523 -919 559
-973 18 -28 85 -68 130 -77 65 -14 107 5 427 189 l317 183 86 -54 c48 -30 117
-70 155 -89 l67 -34 0 -353 c0 -394 4 -427 62 -486 71 -73 47 -71 689 -71
l575 0 51 25 c56 28 95 77 112 140 7 25 11 172 11 392 l0 353 73 36 c39 20
109 60 154 89 l81 53 324 -186 c321 -185 323 -187 383 -187 69 0 139 34 171
82 48 74 553 956 563 984 26 74 3 167 -55 220 -16 15 -166 105 -332 202 l-304
174 0 183 0 182 304 175 c166 97 316 187 332 202 63 57 83 158 47 236 -16 36
-523 919 -559 973 -18 28 -85 68 -130 77 -65 14 -107 -5 -427 -190 l-317 -183
-81 53 c-45 29 -115 69 -154 89 l-73 36 0 353 c0 220 -4 367 -11 392 -17 63
-56 112 -112 140 l-51 25 -576 0 -576 0 -51 -25z m887 -1723 c139 -46 239
-108 345 -216 104 -105 158 -193 206 -336 27 -81 33 -114 37 -221 10 -261 -67
-460 -247 -640 -180 -180 -379 -257 -640 -247 -107 4 -140 10 -221 37 -141 47
-230 102 -336 206 -163 160 -242 336 -252 561 -11 266 64 460 248 644 183 183
360 253 625 246 124 -3 151 -7 235 -34z"/>
</g>
</svg>
